HIERARCHY
ROOT Hips
{
  OFFSET -684.192 93.0447 1098.75
  CHANNELS 6 Xposition Yposition Zposition Zrotation Xrotation Yrotation
  JOINT Spine
  {
    OFFSET 0 8 0
    CHANNELS 6 Xposition Yposition Zposition Zrotation Xrotation Yrotation
    JOINT Spine1
    {
      OFFSET 0.00033437 8 -0.000289892
      CHANNELS 6 Xposition Yposition Zposition Zrotation Xrotation Yrotation
      JOINT Spine2
      {
        OFFSET 8.61524e-05 8 6.34626e-05
        CHANNELS 6 Xposition Yposition Zposition Zrotation Xrotation Yrotation
        JOINT Spine3
        {
          OFFSET 0 8 0
          CHANNELS 6 Xposition Yposition Zposition Zrotation Xrotation Yrotation
          JOINT Neck
          {
            OFFSET -1.73888e-05 17 -6.51181e-05
            CHANNELS 6 Xposition Yposition Zposition Zrotation Xrotation Yrotation
            JOINT Head
            {
              OFFSET -6.12997e-05 10.8 3.78953e-05
              CHANNELS 6 Xposition Yposition Zposition Zrotation Xrotation Yrotation
              End Site
              {
                OFFSET 0 20.25 0
              }
            }
          }
          JOINT LeftShoulder
          {
            OFFSET 4.99995 17 2.99681e-05
            CHANNELS 6 Xposition Yposition Zposition Zrotation Xrotation Yrotation
            JOINT LeftShoulder2
            {
              OFFSET 6.45 0 0
              CHANNELS 6 Xposition Yposition Zposition Zrotation Xrotation Yrotation
              JOINT LeftArm
              {
                OFFSET 6.45003 1.88005e-05 -0.000109165
                CHANNELS 6 Xposition Yposition Zposition Zrotation Xrotation Yrotation
                JOINT LeftForeArm
                {
                  OFFSET -0.000197672 -32.4 -2.00001
                  CHANNELS 6 Xposition Yposition Zposition Zrotation Xrotation Yrotation
                  JOINT LeftHand
                  {
                    OFFSET 0.000517873 -25.6506 2.00045
                    CHANNELS 6 Xposition Yposition Zposition Zrotation Xrotation Yrotation
                    JOINT LeftHandThumb1
                    {
                      OFFSET -0.500108 -1.49984 2.64995
                      CHANNELS 6 Xposition Yposition Zposition Zrotation Xrotation Yrotation
                      JOINT LeftHandThumb2
                      {
                        OFFSET 0 -3.8 3.70005
                        CHANNELS 6 Xposition Yposition Zposition Zrotation Xrotation Yrotation
                        JOINT LeftHandThumb3
                        {
                          OFFSET 0.000100951 -3.0008 2.70046
                          CHANNELS 6 Xposition Yposition Zposition Zrotation Xrotation Yrotation
                          End Site
                          {
                            OFFSET 0.000610429 -2.30076 1.80105
                          }
                        }
                      }
                    }
                    JOINT LeftHandIndex
                    {
                      OFFSET 3.5803e-05 -1.90044 1.59988
                      CHANNELS 6 Xposition Yposition Zposition Zrotation Xrotation Yrotation
                      JOINT LeftHandIndex1
                      {
                        OFFSET 0.000220252 -8.29995 1.90004
                        CHANNELS 6 Xposition Yposition Zposition Zrotation Xrotation Yrotation
                        JOINT LeftHandIndex2
                        {
                          OFFSET -5.11541e-05 -4.4998 0.000676116
                          CHANNELS 6 Xposition Yposition Zposition Zrotation Xrotation Yrotation
                          JOINT LeftHandIndex3
                          {
                            OFFSET 0.000353005 -3.40053 0.00664006
                            CHANNELS 6 Xposition Yposition Zposition Zrotation Xrotation Yrotation
                            End Site
                            {
                              OFFSET 0 -2.60003 0
                            }
                          }
                        }
                      }
                    }
                    JOINT LeftHandMiddle
                    {
                      OFFSET -0.251991 -2.20096 0.399622
                      CHANNELS 6 Xposition Yposition Zposition Zrotation Xrotation Yrotation
                      JOINT LeftHandMiddle1
                      {
                        OFFSET 2.65807e-05 -8.29957 1.00014
                        CHANNELS 6 Xposition Yposition Zposition Zrotation Xrotation Yrotation
                        JOINT LeftHandMiddle2
                        {
                          OFFSET 0.000499344 -4.65035 7.74874e-05
                          CHANNELS 6 Xposition Yposition Zposition Zrotation Xrotation Yrotation
                          JOINT LeftHandMiddle3
                          {
                            OFFSET -2.87651e-05 -3.29996 3.12535e-05
                            CHANNELS 6 Xposition Yposition Zposition Zrotation Xrotation Yrotation
                            End Site
                            {
                              OFFSET -0.000699131 -2.70022 0.00283907
                            }
                          }
                        }
                      }
                    }
                    JOINT LeftHandRing
                    {
                      OFFSET -0.500408 -2.14766 -0.802241
                      CHANNELS 6 Xposition Yposition Zposition Zrotation Xrotation Yrotation
                      JOINT LeftHandRing1
                      {
                        OFFSET -3.11073e-05 -7.75011 -0.199913
                        CHANNELS 6 Xposition Yposition Zposition Zrotation Xrotation Yrotation
                        JOINT LeftHandRing2
                        {
                          OFFSET 0.000846771 -3.80059 0.000348048
                          CHANNELS 6 Xposition Yposition Zposition Zrotation Xrotation Yrotation
                          JOINT LeftHandRing3
                          {
                            OFFSET -0.000273422 -3.40034 5.5156e-05
                            CHANNELS 6 Xposition Yposition Zposition Zrotation Xrotation Yrotation
                            End Site
                            {
                              OFFSET 0.000378178 -2.59974 -1.44348e-05
                            }
                          }
                        }
                      }
                    }
                    JOINT LeftHandPinky
                    {
                      OFFSET -0.750365 -1.7505 -1.85013
                      CHANNELS 6 Xposition Yposition Zposition Zrotation Xrotation Yrotation
                      JOINT LeftHandPinky1
                      {
                        OFFSET -0.000127337 -7.15008 -0.999983
                        CHANNELS 6 Xposition Yposition Zposition Zrotation Xrotation Yrotation
                        JOINT LeftHandPinky2
                        {
                          OFFSET -0.000400453 -2.99915 -0.00227459
                          CHANNELS 6 Xposition Yposition Zposition Zrotation Xrotation Yrotation
                          JOINT LeftHandPinky3
                          {
                            OFFSET -0.00027476 -2.35059 -0.000140155
                            CHANNELS 6 Xposition Yposition Zposition Zrotation Xrotation Yrotation
                            End Site
                            {
                              OFFSET 4.72478e-05 -2.10001 6.74044e-05
                            }
                          }
                        }
                      }
                    }
                  }
                }
              }
            }
          }
          JOINT RightShoulder
          {
            OFFSET -5.00001 17 -1.53481e-05
            CHANNELS 6 Xposition Yposition Zposition Zrotation Xrotation Yrotation
            JOINT RightShoulder2
            {
              OFFSET -6.45 0 0
              CHANNELS 6 Xposition Yposition Zposition Zrotation Xrotation Yrotation
              JOINT RightArm
              {
                OFFSET -6.45002 9.67054e-05 0
                CHANNELS 6 Xposition Yposition Zposition Zrotation Xrotation Yrotation
                JOINT RightForeArm
                {
                  OFFSET -4.35872e-05 -32.4 -1.99994
                  CHANNELS 6 Xposition Yposition Zposition Zrotation Xrotation Yrotation
                  JOINT RightHand
                  {
                    OFFSET 4.14331e-05 -25.6499 2.00023
                    CHANNELS 6 Xposition Yposition Zposition Zrotation Xrotation Yrotation
                    JOINT RightHandThumb1
                    {
                      OFFSET 0.500323 -1.49956 2.65058
                      CHANNELS 6 Xposition Yposition Zposition Zrotation Xrotation Yrotation
                      JOINT RightHandThumb2
                      {
                        OFFSET -2.05609e-05 -3.79996 3.70006
                        CHANNELS 6 Xposition Yposition Zposition Zrotation Xrotation Yrotation
                        JOINT RightHandThumb3
                        {
                          OFFSET 0.000193583 -3.00015 2.69997
                          CHANNELS 6 Xposition Yposition Zposition Zrotation Xrotation Yrotation
                          End Site
                          {
                            OFFSET -7.42433e-05 -2.30006 1.8
                          }
                        }
                      }
                    }
                    JOINT RightHandIndex
                    {
                      OFFSET 0.000260947 -1.89907 1.59982
                      CHANNELS 6 Xposition Yposition Zposition Zrotation Xrotation Yrotation
                      JOINT RightHandIndex1
                      {
                        OFFSET -0.000160417 -8.29977 1.90058
                        CHANNELS 6 Xposition Yposition Zposition Zrotation Xrotation Yrotation
                        JOINT RightHandIndex2
                        {
                          OFFSET -9.27229e-05 -4.50005 0
                          CHANNELS 6 Xposition Yposition Zposition Zrotation Xrotation Yrotation
                          JOINT RightHandIndex3
                          {
                            OFFSET -0.00114153 -3.40127 -0.0010762
                            CHANNELS 6 Xposition Yposition Zposition Zrotation Xrotation Yrotation
                            End Site
                            {
                              OFFSET -0.000284089 -2.5999 -0.000546799
                            }
                          }
                        }
                      }
                    }
                    JOINT RightHandMiddle
                    {
                      OFFSET 0.250574 -2.20005 0.399724
                      CHANNELS 6 Xposition Yposition Zposition Zrotation Xrotation Yrotation
                      JOINT RightHandMiddle1
                      {
                        OFFSET 0.000267832 -8.29883 1.00165
                        CHANNELS 6 Xposition Yposition Zposition Zrotation Xrotation Yrotation
                        JOINT RightHandMiddle2
                        {
                          OFFSET 0.000558717 -4.65029 0.000107919
                          CHANNELS 6 Xposition Yposition Zposition Zrotation Xrotation Yrotation
                          JOINT RightHandMiddle3
                          {
                            OFFSET -0.00101667 -3.30113 0.00021824
                            CHANNELS 6 Xposition Yposition Zposition Zrotation Xrotation Yrotation
                            End Site
                            {
                              OFFSET 0.00092643 -2.69997 0.00393367
                            }
                          }
                        }
                      }
                    }
                    JOINT RightHandRing
                    {
                      OFFSET 0.499808 -2.15022 -0.800187
                      CHANNELS 6 Xposition Yposition Zposition Zrotation Xrotation Yrotation
                      JOINT RightHandRing1
                      {
                        OFFSET -6.6048e-05 -7.74985 -0.199923
                        CHANNELS 6 Xposition Yposition Zposition Zrotation Xrotation Yrotation
                        JOINT RightHandRing2
                        {
                          OFFSET -0.000373123 -3.79987 0.000106985
                          CHANNELS 6 Xposition Yposition Zposition Zrotation Xrotation Yrotation
                          JOINT RightHandRing3
                          {
                            OFFSET -0.000759714 -3.40087 0.000514304
                            CHANNELS 6 Xposition Yposition Zposition Zrotation Xrotation Yrotation
                            End Site
                            {
                              OFFSET -0.000194962 -2.60017 -0.000521086
                            }
                          }
                        }
                      }
                    }
                    JOINT RightHandPinky
                    {
                      OFFSET 0.750726 -1.74997 -1.85007
                      CHANNELS 6 Xposition Yposition Zposition Zrotation Xrotation Yrotation
                      JOINT RightHandPinky1
                      {
                        OFFSET 7.84429e-05 -7.15005 -0.999067
                        CHANNELS 6 Xposition Yposition Zposition Zrotation Xrotation Yrotation
                        JOINT RightHandPinky2
                        {
                          OFFSET 0.00174369 -3.0005 -0.000119709
                          CHANNELS 6 Xposition Yposition Zposition Zrotation Xrotation Yrotation
                          JOINT RightHandPinky3
                          {
                            OFFSET -0.000397271 -2.34998 -4.99548e-05
                            CHANNELS 6 Xposition Yposition Zposition Zrotation Xrotation Yrotation
                            End Site
                            {
                              OFFSET 0.000178339 -2.09967 -0.00010683
                            }
                          }
                        }
                      }
                    }
                  }
                }
              }
            }
          }
        }
      }
    }
  }
  JOINT LeftUpLeg
  {
    OFFSET 7.99997 0 6.25295e-05
    CHANNELS 6 Xposition Yposition Zposition Zrotation Xrotation Yrotation
    JOINT LeftLeg
    {
      OFFSET 8.9848e-05 -45.0001 -0.99982
      CHANNELS 6 Xposition Yposition Zposition Zrotation Xrotation Yrotation
      JOINT LeftFoot
      {
        OFFSET -0.000345011 -40.9998 -1.99965
        CHANNELS 6 Xposition Yposition Zposition Zrotation Xrotation Yrotation
        JOINT LeftToeBase
        {
          OFFSET 0.00065066 -7.50012 12.4999
          CHANNELS 6 Xposition Yposition Zposition Zrotation Xrotation Yrotation
          JOINT LeftFootToe
          {
            OFFSET 0 0 4
            CHANNELS 6 Xposition Yposition Zposition Zrotation Xrotation Yrotation
            End Site
            {
              OFFSET 0 0 0
            }
          }
        }
      }
    }
  }
  JOINT RightUpLeg
  {
    OFFSET -7.99997 0 -6.25295e-05
    CHANNELS 6 Xposition Yposition Zposition Zrotation Xrotation Yrotation
    JOINT RightLeg
    {
      OFFSET 0.000214178 -45 -1.00016
      CHANNELS 6 Xposition Yposition Zposition Zrotation Xrotation Yrotation
      JOINT RightFoot
      {
        OFFSET 2.87967e-05 -41 -1.99997
        CHANNELS 6 Xposition Yposition Zposition Zrotation Xrotation Yrotation
        JOINT RightToeBase
        {
          OFFSET -0.000812157 -7.5 12.5006
          CHANNELS 6 Xposition Yposition Zposition Zrotation Xrotation Yrotation
          JOINT RightFootToe
          {
            OFFSET 0 0 4
            CHANNELS 6 Xposition Yposition Zposition Zrotation Xrotation Yrotation
            End Site
            {
              OFFSET 0 0 0
            }
          }
        }
      }
    }
  }
}
MOTION
Frames:	3
Frame Time:	0.0111111
-664.059 91.8072 1094.72 4.14167 4.1655 -135.939 -2.27374e-13 8 -1.13687e-13 9.47632 3.87579 14.5701 0 8 -1.13687e-13 -0.228905 2.14264 5.93294 0 8 2.27374e-13 -0.0852717 1.07523 2.97509 0 8 -5.68434e-14 -0.0880454 1.07264 2.97965 0 17 0 4.95321 9.91854 9.52517 2.27374e-13 10.8 5.68434e-14 1.8066 13.9207 22.9882 5 17 -5.68434e-14 2.34925 0.820966 -2.5667 6.45 2.84217e-14 1.13687e-13 -0.630751 -0.477292 0.148445 6.45 -2.84217e-14 0 47.9446 -36.269 50.7477 0 -32.4 -2 -31.1044 -9.46086 12.0599 0 -25.65 2 54.176 31.0527 -44.3045 -0.5 -1.5 2.65 33.9972 -50.757 53.7185 0 -3.8 3.7 7.65084 32.7209 1.52211 1.13687e-13 -3 2.7 -0.0520913 32.3039 0.00603396 1.13687e-13 -1.9 1.6 1.6865e-06 -1.86909e-06 -3.83195e-07 -1.13687e-13 -8.3 1.9 -1.5284 -6.9703 -0.136146 1.13687e-13 -4.5 0 -0.0472225 0.0353855 0.000912805 0 -3.4 1.13687e-13 -0.000132717 0.184142 0.00109523 -0.25 -2.2 0.4 1.6865e-06 -1.86909e-06 -3.83195e-07 0 -8.3 1 -1.1628 -5.52852 -0.0834703 1.13687e-13 -4.65 0 -37.0644 3.73432 -0.0222745 0 -3.3 2.27374e-13 -89.999 0.0304298 -0.0010984 -0.5 -2.15 -0.8 1.6865e-06 -1.86909e-06 -3.83195e-07 1.13687e-13 -7.75 -0.2 -0.424955 -3.1241 -0.00431985 3.41061e-13 -3.8 0 0.0265758 -0.00475308 0.00988075 -1.13687e-13 -3.4 0 -0.402869 0.0126255 0.010804 -0.75 -1.75 -1.85 1.6865e-06 -1.86909e-06 -3.83195e-07 -1.13687e-13 -7.15 -1 -0.0384096 -1.6939 0.0216018 1.13687e-13 -3 -1.13687e-13 -0.630264 0.0186014 0.01692 -2.27374e-13 -2.35 0 -0.50075 0.016584 0.0155426 -5 17 0 9.60823 -0.689458 4.31057 -6.45 0 5.68434e-14 -1.42275 -0.223854 -0.839988 -6.45 2.84217e-14 1.7053e-13 -22.1726 -19.5091 -17.2796 0 -32.4 -2 61.4612 -53.0417 75.8225 1.13687e-13 -25.65 2 -47.9772 -2.45234 50.4954 0.5 -1.5 2.65 106.646 25.5278 127.979 2.27374e-13 -3.8 3.7 0.553894 -2.57455 -0.373708 0 -3 2.7 0.0816909 -0.0529926 -0.103331 -5.68434e-14 -1.9 1.6 -2.5996e-06 -6.09467e-07 3.67161e-06 0 -8.3 1.9 0.230842 4.10747 -0.0225269 0 -4.5 0 -0.0466814 -0.0570979 0.192641 0 -3.4 0 -0.0212152 -0.160773 0.189284 0.25 -2.2 0.4 -2.5996e-06 -6.09467e-07 3.67161e-06 0 -8.3 1 4.12633 9.30096 -0.607767 -5.68434e-14 -4.65 0 1.82742 0.508523 0.0921928 0 -3.3 2.27374e-13 1.88651 -0.0241281 0.0918197 0.5 -2.15 -0.8 -2.5996e-06 -6.09467e-07 3.67161e-06 -5.68434e-14 -7.75 -0.2 11.1038 16.2495 -2.3274 5.68434e-14 -3.8 0 15.5081 8.36246 0.320664 0 -3.4 0 15.6971 -0.0387453 -0.00153775 0.75 -1.75 -1.85 -2.5996e-06 -6.09467e-07 3.67161e-06 5.68434e-14 -7.15 -1 15.6984 19.2388 -3.66417 5.68434e-14 -3 0 21.3771 21.5958 3.69603 5.68434e-14 -2.35 1.13687e-13 28.4427 -0.0199533 0.0245768 8 -2.84217e-14 -2.27374e-13 17.3568 -15.7761 2.06896 0 -45 -1 -9.21275 8.83588 3.14352 0 -41 -2 -1.13462 3.91163 -17.1153 0 -7.5 12.5 -0.0158316 0.0449782 0.0405935 -2.27374e-13 2.13163e-14 4 6.04602 -4.30412 -21.023 -8 2.84217e-14 -1.7053e-13 13.2667 -1.7554 -11.724 2.27374e-13 -45 -1 -12.4038 2.417 0.815487 0 -41 -2 4.7719 -2.16783 -22.2936 0 -7.5 12.5 -0.0073485 0.360185 -0.00143284 0 0 4 0.414526 0.101267 23.2305 
-664.055 91.8076 1094.73 4.14783 4.15483 -136.061 0 8 -1.13687e-13 9.49437 3.88043 14.5711 0 8 -1.13687e-13 -0.218794 2.15603 5.93255 0 8 1.13687e-13 -0.080984 1.08173 2.97548 0 8 5.68434e-14 -0.0820161 1.07982 2.97983 0 17 -2.27374e-13 4.91052 9.968 9.57359 2.27374e-13 10.8 1.13687e-13 1.68136 14.0826 23.1066 5 17 -2.84217e-13 2.25922 0.852732 -2.61909 6.45 0 1.7053e-13 -0.612596 -0.477273 0.179112 6.45 2.84217e-14 -1.7053e-13 48.4127 -36.4081 50.7421 1.13687e-13 -32.4 -2 -30.4876 -8.50857 12.0398 -2.27374e-13 -25.65 2 53.0182 30.9437 -44.4868 -0.5 -1.5 2.65 33.8746 -49.9858 53.6889 0 -3.8 3.7 7.66968 32.7687 1.51637 0 -3 2.7 -0.0516982 31.1583 0.00614482 -1.13687e-13 -1.9 1.6 1.6865e-06 -1.86909e-06 -3.83195e-07 -1.13687e-13 -8.3 1.9 -1.47115 -6.67249 -0.131106 0 -4.5 1.13687e-13 -0.0473006 0.035512 0.000909946 -1.13687e-13 -3.4 1.13687e-13 -0.000133427 0.184212 0.0010941 -0.25 -2.2 0.4 1.6865e-06 -1.86909e-06 -3.83195e-07 -1.13687e-13 -8.3 1 -1.11382 -5.13034 -0.0825992 1.13687e-13 -4.65 2.27374e-13 -37.0638 3.73388 -0.0209962 0 -3.3 2.27374e-13 -89.999 0.030839 -0.00109985 -0.5 -2.15 -0.8 1.6865e-06 -1.86909e-06 -3.83195e-07 1.13687e-13 -7.75 -0.2 -0.388055 -2.46754 -0.0117961 2.27374e-13 -3.8 0 0.0254187 -0.0141834 0.0276029 -1.13687e-13 -3.4 1.13687e-13 -1.03999 0.027583 0.0274049 -0.75 -1.75 -1.85 1.6865e-06 -1.86909e-06 -3.83195e-07 1.13687e-13 -7.15 -1 -0.0139856 -0.947085 0.00871974 1.13687e-13 -3 0 -1.52425 0.0404908 0.0409162 0 -2.35 0 -1.26681 0.0341602 0.0367673 -5 17 -2.27374e-13 9.62339 -0.848537 4.29836 -6.45 5.68434e-14 5.68434e-14 -1.42356 -0.217536 -0.833553 -6.45 -5.68434e-14 5.68434e-14 -22.2428 -19.3875 -17.0123 0 -32.4 -2 61.7433 -53.1679 76.0299 1.13687e-13 -25.65 2 -47.6884 -2.2791 51.1085 0.5 -1.5 2.65 106.538 24.7302 128.095 0 -3.8 3.7 0.553807 -2.57459 -0.373769 -2.27374e-13 -3 2.7 0.0817011 -0.0529929 -0.10331 -1.13687e-13 -1.9 1.6 -2.5996e-06 -6.09467e-07 3.67161e-06 5.68434e-14 -8.3 1.9 0.21985 3.93932 -0.0221628 0 -4.5 2.27374e-13 -0.0471671 -0.0574936 0.194321 5.68434e-14 -3.4 0 -0.0215898 -0.162099 0.19094 0.25 -2.2 0.4 -2.5996e-06 -6.09467e-07 3.67161e-06 -5.68434e-14 -8.3 1 3.84701 9.11745 -0.570956 0 -4.65 0 1.35613 0.378314 0.0920449 0 -3.3 0 1.40384 -0.019233 0.09168 0.5 -2.15 -0.8 -2.5996e-06 -6.09467e-07 3.67161e-06 -1.13687e-13 -7.75 -0.2 10.3536 16.166 -2.18694 0 -3.8 0 13.7816 7.35826 0.24058 0 -3.4 0 14.1357 -0.0387455 -0.00182815 0.75 -1.75 -1.85 -2.5996e-06 -6.09467e-07 3.67161e-06 0 -7.15 -1 14.5612 19.2177 -3.42728 0 -3 0 20.5486 20.2652 3.21172 -1.13687e-13 -2.35 -1.13687e-13 27.1313 -0.0224937 0.0228475 8 0 0 17.3528 -15.7617 2.01277 -2.27374e-13 -45 -1 -9.17142 8.84044 3.13344 0 -41 -2 -1.18751 3.9171 -17.0082 -2.27374e-13 -7.5 12.5 -0.015869 0.044974 0.0406354 -4.54747e-13 2.84217e-14 4 6.06978 -4.29857 -21.0196 -8 0 -5.68434e-14 13.2612 -1.75956 -11.7246 0 -45 -1 -12.4012 2.40138 0.816137 0 -41 -2 4.76942 -2.14722 -22.2 0 -7.5 12.5 -0.00734849 0.360719 -0.00143284 1.13687e-13 -8.88178e-16 4 0.42215 0.0835343 23.2305 
-664.052 91.8091 1094.73 4.15397 4.14419 -136.182 0 8 0 9.51481 3.89006 14.5718 0 8 -2.27374e-13 -0.206756 2.17246 5.93533 0 8 1.13687e-13 -0.0752883 1.08973 2.97585 2.27374e-13 8 -1.13687e-13 -0.0753701 1.08809 2.98 0 17 -1.7053e-13 4.86592 10.0075 9.61702 0 10.8 0 1.56069 14.2329 23.2121 5 17 0 2.16495 0.886757 -2.65942 6.45 5.68434e-14 -5.68434e-14 -0.595063 -0.476797 0.209952 6.45 0 5.68434e-14 48.86 -36.5237 50.7265 1.13687e-13 -32.4 -2 -29.9334 -7.61062 11.9762 2.27374e-13 -25.65 2 51.7804 30.8918 -44.5074 -0.5 -1.5 2.65 33.6852 -49.2637 53.452 0 -3.8 3.7 7.70023 32.8466 1.50729 5.68434e-14 -3 2.7 -0.0515235 30.0316 0.00607109 1.13687e-13 -1.9 1.6 1.6865e-06 -1.86909e-06 -3.83195e-07 -3.41061e-13 -8.3 1.9 -1.39677 -6.15594 -0.121378 0 -4.5 1.7053e-13 -0.0473763 0.0356383 0.000907063 0 -3.4 0 -0.000134132 0.184277 0.00109294 -0.25 -2.2 0.4 1.6865e-06 -1.86909e-06 -3.83195e-07 -1.13687e-13 -8.3 1 -1.06137 -4.54181 -0.0766802 1.13687e-13 -4.65 5.68434e-14 -37.0655 3.7327 -0.0187947 2.27374e-13 -3.3 5.68434e-14 -89.999 0.0312427 -0.0011013 -0.5 -2.15 -0.8 1.6865e-06 -1.86909e-06 -3.83195e-07 -1.13687e-13 -7.75 -0.2 -0.363677 -1.73157 -0.013584 1.13687e-13 -3.8 -1.13687e-13 0.023982 -0.0466938 0.0659559 0 -3.4 1.13687e-13 -2.30838 0.0400886 0.0588028 -0.75 -1.75 -1.85 1.6865e-06 -1.86909e-06 -3.83195e-07 1.13687e-13 -7.15 -1 -0.00750113 -0.183777 0.00267118 0 -3 0 -3.50425 0.066583 0.0839854 0 -2.35 0 -2.78984 0.0481857 0.0725707 -5 17 -1.13687e-13 9.63782 -1.00462 4.29936 -6.45 2.84217e-14 5.68434e-14 -1.42497 -0.210413 -0.831768 -6.45 0 -5.68434e-14 -22.3373 -19.2317 -16.817 -2.27374e-13 -32.4 -2 62.1117 -53.2404 76.1393 1.13687e-13 -25.65 2 -47.3369 -1.98361 51.5865 0.5 -1.5 2.65 106.103 24.4076 128.076 -2.27374e-13 -3.8 3.7 0.553724 -2.57463 -0.373822 2.27374e-13 -3 2.7 0.0817102 -0.0529932 -0.103292 -5.68434e-14 -1.9 1.6 -2.5996e-06 -6.09467e-07 3.67161e-06 1.13687e-13 -8.3 1.9 0.202368 3.74997 -0.0219393 0 -4.5 0 -0.0476286 -0.057923 0.196001 0 -3.4 2.27374e-13 -0.0219777 -0.163411 0.192593 0.25 -2.2 0.4 -2.5996e-06 -6.09467e-07 3.67161e-06 0 -8.3 1 3.56258 8.90719 -0.533851 0 -4.65 0 0.936555 0.262404 0.0918776 -5.68434e-14 -3.3 0 0.972125 -0.0142632 0.091519 0.5 -2.15 -0.8 -2.5996e-06 -6.09467e-07 3.67161e-06 -1.13687e-13 -7.75 -0.2 9.59884 16.0467 -2.04445 -5.68434e-14 -3.8 0 11.9275 6.31257 0.172132 -5.68434e-14 -3.4 0 12.3759 -0.0273287 -0.00211461 0.75 -1.75 -1.85 -2.5996e-06 -6.09467e-07 3.67161e-06 0 -7.15 -1 13.4266 19.1593 -3.18857 0 -3 0 19.4981 18.776 2.7272 5.68434e-14 -2.35 1.13687e-13 25.5966 -0.0174513 0.0146024 8 0 -1.7053e-13 17.3517 -15.7412 1.96088 0 -45 -1 -9.13644 8.83359 3.12319 0 -41 -2 -1.23547 3.92681 -16.9019 0 -7.5 12.5 -0.0159061 0.0449692 0.0406771 -2.27374e-13 2.84217e-14 4 6.09451 -4.29444 -21.0157 -8 0 -1.7053e-13 13.2503 -1.7648 -11.7283 0 -45 -1 -12.3889 2.39011 0.815519 2.27374e-13 -41 -2 4.76213 -2.1292 -22.1048 0 -7.5 12.5 -0.00734847 0.361247 -0.00143284 0 -8.88178e-16 4 0.429729 0.0653605 23.2305 
